# xmcd
#
# Track frame offsets:
#	150
#	18975
#	36078
#	58331
#	72379
#	88550
#	102687
#	120084
#	139898
#	156017
#	172307
#	190140
#	203231
#	217351
#	232275
#	252100
#	268068
#
# Disc length: 3798 seconds
#
# Revision: 0
# Processed by: cddbd v1.5.2PL0 Copyright (c) Steve Scherf et al.
# Submitted via: EasyCDDAExtractor 4.6.9.1
#
DISCID=090ed411
DTITLE=Petr Spaleny - Portrety ceskych hvezd - Az me andele
DYEAR=2005
DGENRE=Pop-Folk
TTITLE0=Az me andele
TTITLE1=Proc jsem tady
TTITLE2=Old time band
TTITLE3=Je lip, je hur
TTITLE4=Kde jsou honorare
TTITLE5=Ptacata
TTITLE6=Nejlepsi je teseni
TTITLE7=Dalka
TTITLE8=Nocni show nemilovanych
TTITLE9=Kdybych ja byl kovarem
TTITLE10=Je to trest
TTITLE11=Obycejny muz
TTITLE12=Plakalo baby
TTITLE13=Josefina
TTITLE14=Dite stesteny
TTITLE15=Laredo
TTITLE16=Nevyzpytatelna cesta
EXTD=
EXTT0=
EXTT1=
EXTT2=
EXTT3=
EXTT4=
EXTT5=
EXTT6=
EXTT7=
EXTT8=
EXTT9=
EXTT10=
EXTT11=
EXTT12=
EXTT13=
EXTT14=
EXTT15=
EXTT16=
PLAYORDER=
